#!OML:ASF H:\Dans Jumps\Project 1\Capture day 1\Session 1\subject.ASF
:FULLY-SPECIFIED
:DEGREES
513
root 0.141522 17.6828 10.5638 6.53534 -2.20771 -1.5958
lowerback -5.68523 0.405068 0.434639
upperback -0.612331 0.470802 1.51364
thorax 2.54761 0.232207 1.35029
lowerneck -15.7058 0.369242 -1.86435
upperneck 16.1802 0.781647 0.889505
head 7.55822 0.343003 0.684511
rclavicle 1.09953e-014 1.2921e-014
rhumerus -25.7988 -16.0151 -82.1502
rradius 21.7339
rwrist 40.8916
rhand -15.8393 -25.7491
rfingers 7.12502
rthumb 10.3552 -55.4741
lclavicle 1.09953e-014 1.2921e-014
lhumerus -22.16 2.339 90.5404
lradius 14.3535
lwrist -2.70274
lhand -24.1509 -7.39731
lfingers 7.12502
lthumb 2.33166 22.5697
rfemur -9.99912 -2.2021 19.7335
rtibia 19.2114
rfoot -14.8348 2.6602
rtoes 15.1162
lfemur -8.18706 8.31123 -17.7281
ltibia 16.2917
lfoot -11.1083 7.2099
ltoes -7.79143
514
root 0.140785 17.6827 10.5613 6.51978 -2.1967 -1.58384
lowerback -5.68456 0.409059 0.431499
upperback -0.615751 0.476653 1.50368
thorax 2.54364 0.235152 1.34221
lowerneck -15.709 0.372407 -1.87327
upperneck 16.2461 0.785625 0.903217
head 7.58033 0.345318 0.691301
rclavicle 3.62782e-015 2.66371e-014
rhumerus -25.8095 -15.9491 -82.169
rradius 21.7527
rwrist 40.852
rhand -15.8366 -25.7485
rfingers 7.12502
rthumb 10.3578 -55.4734
lclavicle 3.62782e-015 2.66371e-014
lhumerus -22.193 2.21206 90.626
lradius 14.3865
lwrist -2.64887
lhand -24.1745 -7.4696
lfingers 7.12502
lthumb 2.30882 22.4977
rfemur -9.99267 -2.22237 19.7219
rtibia 19.2162
rfoot -14.8329 2.67404
rtoes 15.1278
lfemur -8.17312 8.29806 -17.7373
ltibia 16.2788
lfoot -11.0988 7.20815
ltoes -7.79323
515
root 0.139982 17.6827 10.5587 6.50531 -2.18247 -1.5739
lowerback -5.68253 0.410962 0.428639
upperback -0.617026 0.479659 1.49486
thorax 2.54119 0.236669 1.33494
lowerneck -15.6915 0.372837 -1.88785
upperneck 16.2789 0.785738 0.922241
head 7.58792 0.346118 0.700071
rclavicle 6.31141e-015 -2.5842e-015
rhumerus -25.8168 -15.8815 -82.1866
rradius 21.7691
rwrist 40.8201
rhand -15.8385 -25.7359
rfingers 7.12502
rthumb 10.356 -55.4609
lclavicle 6.31141e-015 -2.5842e-015
lhumerus -22.2287 2.16838 90.6851
lradius 14.4211
lwrist -2.68634
lhand -24.1966 -7.54182
lfingers 7.12502
lthumb 2.28749 22.4257
rfemur -9.98675 -2.24317 19.7131
rtibia 19.22
rfoot -14.8296 2.68599
rtoes 15.1434
lfemur -8.16139 8.28256 -17.7435
ltibia 16.2675
lfoot -11.0902 7.20371
ltoes -7.78193
516
root 0.139066 17.6827 10.5561 6.4918 -2.16675 -1.56851
lowerback -5.67771 0.412445 0.429119
upperback -0.619685 0.481916 1.48749
thorax 2.53577 0.237849 1.32717
lowerneck -15.6679 0.372032 -1.89487
upperneck 16.3034 0.784024 0.93183
head 7.59181 0.345642 0.704224
rclavicle -1.2188e-014 1.25234e-014
rhumerus -25.8255 -15.8175 -82.201
rradius 21.7819
rwrist 40.793
rhand -15.8367 -25.7286
rfingers 7.12502
rthumb 10.3577 -55.4535
lclavicle -1.2188e-014 1.25234e-014
lhumerus -22.2753 2.17605 90.7262
lradius 14.4586
lwrist -2.77112
lhand -24.2139 -7.59116
lfingers 7.12502
lthumb 2.27083 22.3765
rfemur -9.98131 -2.25984 19.7102
rtibia 19.2223
rfoot -14.8241 2.69321
rtoes 15.156
lfemur -8.1523 8.26743 -17.7437
ltibia 16.2584
lfoot -11.0833 7.19607
ltoes -7.7558
517
root 0.137901 17.6827 10.5536 6.47209 -2.14083 -1.5599
lowerback -5.66379 0.409601 0.424743
upperback -0.621793 0.478839 1.47969
thorax 2.5259 0.236333 1.3212
lowerneck -15.6451 0.369691 -1.89869
upperneck 16.327 0.780353 0.936744
head 7.59561 0.343981 0.706097
rclavicle 5.31749e-015 4.77083e-015
rhumerus -25.8346 -15.7521 -82.2161
rradius 21.7964
rwrist 40.7469
rhand -15.8213 -25.7391
rfingers 7.12502
rthumb 10.3725 -55.4633
lclavicle 5.31749e-015 4.77083e-015
lhumerus -22.3154 2.18059 90.7617
lradius 14.4785
lwrist -2.84008
lhand -24.2249 -7.63132
lfingers 7.12502
lthumb 2.26013 22.3364
rfemur -9.96644 -2.27647 19.7057
rtibia 19.2241
rfoot -14.8208 2.68961
rtoes 15.1604
lfemur -8.13892 8.25059 -17.744
ltibia 16.2512
lfoot -11.079 7.17898
ltoes -7.72374
518
root 0.136463 17.6827 10.5508 6.44876 -2.1066 -1.55055
lowerback -5.63973 0.404069 0.417582
upperback -0.623108 0.472481 1.47174
thorax 2.51121 0.233164 1.31629
lowerneck -15.6369 0.366022 -1.90744
upperneck 16.3604 0.774785 0.949717
head 7.60515 0.34185 0.711345
rclavicle -9.06955e-016 -1.35174e-014
rhumerus -25.8401 -15.6963 -82.23
rradius 21.81
rwrist 40.6928
rhand -15.7846 -25.7705
rfingers 7.12502
rthumb 10.408 -55.4929
lclavicle -9.06955e-016 -1.35174e-014
lhumerus -22.345 2.13079 90.8068
lradius 14.4881
lwrist -2.8095
lhand -24.2275 -7.64785
lfingers 7.12502
lthumb 2.25762 22.3199
rfemur -9.94648 -2.28702 19.7025
rtibia 19.225
rfoot -14.8179 2.67216
rtoes 15.1709
lfemur -8.12584 8.23333 -17.7424
ltibia 16.2472
lfoot -11.076 7.15348
ltoes -7.69287
519
root 0.13467 17.6827 10.5479 6.42047 -2.06771 -1.54351
lowerback -5.60526 0.396815 0.409707
upperback -0.622983 0.463959 1.46475
thorax 2.49221 0.228912 1.31251
lowerneck -15.6482 0.363057 -1.91705
upperneck 16.4096 0.770145 0.966017
head 7.6233 0.340364 0.718115
rclavicle 1.12686e-014 -3.18055e-015
rhumerus -25.8433 -15.6517 -82.2424
rradius 21.8242
rwrist 40.6311
rhand -15.728 -25.8247
rfingers 7.12502
rthumb 10.4625 -55.5443
lclavicle 1.12686e-014 -3.18055e-015
lhumerus -22.366 2.03064 90.8594
lradius 14.4853
lwrist -2.7041
lhand -24.2324 -7.66268
lfingers 7.12502
lthumb 2.2529 22.3052
rfemur -9.92076 -2.28477 19.7043
rtibia 19.2256
rfoot -14.8159 2.63537
rtoes 15.168
lfemur -8.11157 8.2132 -17.7353
ltibia 16.2467
lfoot -11.0732 7.12647
ltoes -7.66344
520
root 0.132813 17.6828 10.5444 6.39953 -2.03492 -1.5434
lowerback -5.57674 0.392836 0.40674
upperback -0.620793 0.459306 1.46056
thorax 2.4786 0.226609 1.30925
lowerneck -15.6863 0.362611 -1.93603
upperneck 16.4793 0.769634 0.993272
head 7.65279 0.341242 0.730734
rclavicle 1.25234e-014 3.57812e-015
rhumerus -25.8429 -15.6196 -82.248
rradius 21.8346
rwrist 40.5825
rhand -15.6799 -25.8773
rfingers 7.12502
rthumb 10.5089 -55.5946
lclavicle 1.25234e-014 3.57812e-015
lhumerus -22.3775 1.90299 90.9162
lradius 14.4809
lwrist -2.5499
lhand -24.2267 -7.66891
lfingers 7.12502
lthumb 2.25845 22.2989
rfemur -9.906 -2.27309 19.7142
rtibia 19.225
rfoot -14.8085 2.5965
rtoes 15.1777
lfemur -8.11037 8.19172 -17.7223
ltibia 16.2517
lfoot -11.067 7.10795
ltoes -7.64295
521
root 0.130957 17.6831 10.5403 6.38661 -2.01104 -1.54782
lowerback -5.55372 0.392371 0.406348
upperback -0.619127 0.459046 1.45874
thorax 2.46745 0.226507 1.30737
lowerneck -15.7281 0.361877 -1.96386
upperneck 16.5519 0.769255 1.02912
head 7.68379 0.342458 0.747707
rclavicle -4.09993e-015 -8.15017e-015
rhumerus -25.8437 -15.6066 -82.2431
rradius 21.8374
rwrist 40.5626
rhand -15.6492 -25.9087
rfingers 7.12502
rthumb 10.5385 -55.6245
lclavicle -4.09993e-015 -8.15017e-015
lhumerus -22.4006 1.80137 90.9636
lradius 14.4901
lwrist -2.41274
lhand -24.2116 -7.6682
lfingers 7.12502
lthumb 2.27296 22.2994
rfemur -9.90375 -2.25203 19.729
rtibia 19.2232
rfoot -14.7956 2.55773
rtoes 15.1913
lfemur -8.12226 8.16672 -17.7069
ltibia 16.2618
lfoot -11.0577 7.10204
ltoes -7.61846
522
root 0.129231 17.6836 10.5357 6.38593 -1.99976 -1.55575
lowerback -5.54359 0.397224 0.408958
upperback -0.618077 0.465486 1.4584
thorax 2.46276 0.229754 1.30594
lowerneck -15.7642 0.358965 -1.99348
upperneck 16.6192 0.766861 1.06157
head 7.71211 0.342294 0.763591
rclavicle -4.1869e-015 -9.93923e-016
rhumerus -25.8447 -15.6114 -82.2271
rradius 21.8299
rwrist 40.578
rhand -15.6495 -25.9106
rfingers 7.12502
rthumb 10.5383 -55.6264
lclavicle -4.1869e-015 -9.93923e-016
lhumerus -22.4368 1.74706 90.9982
lradius 14.5174
lwrist -2.30349
lhand -24.1803 -7.65718
lfingers 7.12502
lthumb 2.30323 22.3101
rfemur -9.91908 -2.22402 19.7466
rtibia 19.2206
rfoot -14.7768 2.52529
rtoes 15.213
lfemur -8.1494 8.14149 -17.6916
ltibia 16.2751
lfoot -11.0459 7.109
ltoes -7.58354
523
root 0.127765 17.6842 10.5311 6.39252 -1.99618 -1.5627
lowerback -5.54491 0.405329 0.412434
upperback -0.617048 0.476059 1.45785
thorax 2.46439 0.235056 1.30425
lowerneck -15.7861 0.353369 -2.02327
upperneck 16.6737 0.761397 1.08958
head 7.73383 0.340277 0.777568
rclavicle 8.52289e-015 -4.37326e-015
rhumerus -25.8482 -15.6322 -82.2009
rradius 21.8136
rwrist 40.6211
rhand -15.6824 -25.8819
rfingers 7.12502
rthumb 10.5065 -55.5994
lclavicle 8.52289e-015 -4.37326e-015
lhumerus -22.4841 1.73313 91.0215
lradius 14.5534
lwrist -2.22606
lhand -24.1366 -7.63415
lfingers 7.12502
lthumb 2.34542 22.3327
rfemur -9.94463 -2.2037 19.7612
rtibia 19.2192
rfoot -14.7573 2.50795
rtoes 15.238
lfemur -8.18216 8.11601 -17.6807
ltibia 16.2868
lfoot -11.0316 7.12504
ltoes -7.55112
